<svg width="49" height="49" viewBox="0 0 49 49" fill="none" xmlns="http://www.w3.org/2000/svg">
<rect x="1.20215" y="9.72559" width="12.0535" height="54.0251" transform="rotate(-45 1.20215 9.72559)" fill="#403829"/>
<rect x="40.5518" y="3.80811" width="6.83301" height="51.181" transform="rotate(45 40.5518 3.80811)" fill="#403829"/>
<path d="M9.40625 0L8.6875 0.6875L0.6875 8.6875L0 9.40625L0.6875 10.125L16.3125 25.75L3.78125 38.2812C3.65234 38.3984 3.55469 38.5508 3.5 38.7188L1.5 46.2188C1.41016 46.5625 1.51172 46.9258 1.76172 47.1758C2.01172 47.4258 2.375 47.5273 2.71875 47.4375L10.2188 45.4375C10.3867 45.3828 10.5391 45.2852 10.6562 45.1562L45.2188 10.5938C45.2148 10.5977 46.0312 9.78125 46.0312 9.78125C47.9336 7.87891 47.9297 4.80469 46.0312 2.90625C44.1289 1.00391 41.0586 1.00781 39.1562 2.90625L25.75 16.3125L10.125 0.6875L9.40625 0ZM9.40625 2.84375L11.0312 4.46875L9.75 5.75L11.1875 7.1875L12.4688 5.90625L14.0312 7.46875L11.75 9.75L13.1875 11.1875L15.4688 8.90625L17.0312 10.4688L15.75 11.75L17.1875 13.1875L18.4688 11.9062L20.0312 13.4688L17.75 15.75L19.1875 17.1875L21.4688 14.9062L23.0312 16.4688L21.75 17.75L23.0312 19.0312L17.75 24.3125L2.84375 9.40625L9.40625 2.84375ZM39.75 5.125L43.8125 9.1875L9.4375 43.5625L5.375 39.5L39.75 5.125ZM33.4688 24.0625L32.75 24.75L30.75 26.75L32.1875 28.1875L33.4688 26.9062L35.0312 28.4688L32.75 30.75L34.1875 32.1875L36.4688 29.9062L38.0312 31.4688L36.75 32.75L38.1875 34.1875L39.4688 32.9062L41.0312 34.4688L38.75 36.75L40.1875 38.1875L42.4688 35.9062L44.0312 37.4688L42.75 38.75L44.1875 40.1875L45.4688 38.9062L46.0938 39.5312L39.5312 46.0938L25.4688 32.0625L24.0625 33.4688L38.8125 48.25L39.5312 48.9375L40.25 48.25L48.25 40.25L48.9375 39.5312L48.25 38.8125L33.4688 24.0625Z" fill="#FFCA65"/>
</svg>
